<?xml version="1.0" encoding="utf-8"?>
<!-- Generator: Adobe Illustrator 16.0.3, SVG Export Plug-In . SVG Version: 6.00 Build 0)  -->
<svg version="1.2" baseProfile="tiny" id="Layer_1" xmlns="http://www.w3.org/2000/svg" xmlns:xlink="http://www.w3.org/1999/xlink"
	 x="0px" y="0px" width="16px" height="48px" viewBox="0 0 16 48" xml:space="preserve">
<path fill-rule="evenodd" fill="#2A80C3" d="M10,15.738v-2.105c2.325-0.827,4-3.024,4-5.633c0-2.608-1.675-4.806-4-5.632V0.262
	c3.449,0.89,6,4.012,6,7.738C16,11.727,13.449,14.849,10,15.738z M3,12c-1.657,0-3-1.343-3-3V7c0-1.657,1.343-3,3-3h1l5-4v16l-5-4H3
	z M7,12V9V7V4L5,6H3C2.448,6,2,6.448,2,7v2c0,0.552,0.448,1,1,1h2L7,12z M13,8c0,1.862-1.278,3.413-3,3.858V9.723
	C10.595,9.376,11,8.738,11,8s-0.405-1.376-1-1.723V4.142C11.722,4.588,13,6.139,13,8z"/>
<path fill-rule="evenodd" fill="#2A80C3" d="M12.995,32h-10c-1.657,0-3-1.343-3-3V19c0-1.657,1.343-3,3-3h10c1.657,0,3,1.343,3,3v10
	C15.995,30.657,14.652,32,12.995,32z M13.995,19c0-0.552-0.448-1-1-1h-10c-0.552,0-1,0.448-1,1v10c0,0.552,0.448,1,1,1h10
	c0.552,0,1-0.448,1-1V19z M11.995,29h-1V19h1V29z M5.995,27h4v2h-4V27z M5.995,22h4v4h-4V22z M5.995,19h4v2h-4V19z M3.995,19h1v10
	h-1V19z"/>
<path fill-rule="evenodd" fill="#2A80C3" d="M13,44h-0.18c-0.018-0.049-0.029-0.1-0.049-0.147C12.439,43.049,12,42.448,11,42.171V41
	c0-1.654-1.346-3-3-3s-3,1.346-3,3v1.169c-1,0.277-1.439,0.878-1.771,1.679c-0.01,0.023-0.015,0.049-0.023,0.072
	C1.377,43.552,0,41.937,0,40v-1c0-2.209,1.791-4,4-4c0.38,0,0.741,0.07,1.089,0.169C5.472,33.359,7.076,32,9,32c2.209,0,4,1.791,4,4
	c0,0.353-0.061,0.689-0.146,1.015C12.903,37.012,12.95,37,13,37c1.657,0,3,1.344,3,3v1C16,42.657,14.657,44,13,44z M6,44h1.002v-3
	c0-0.553,0.447-1,1-1s1,0.447,1,1v3h0.998c0.404,0,0.77,0.244,0.924,0.617c0.039,0.094,0.062,0.189,0.072,0.287
	c0.027,0.293-0.074,0.588-0.289,0.803l-2,2C8.512,47.902,8.256,48,8,48s-0.512-0.098-0.707-0.293l-2-2
	c-0.213-0.215-0.314-0.51-0.287-0.803c0.008-0.098,0.031-0.193,0.07-0.287C5.231,44.244,5.596,44,6,44z"/>
</svg>
